<svg width="217" height="65" viewBox="0 0 217 65" fill="none" xmlns="http://www.w3.org/2000/svg">
<g clip-path="url(#clip0_167_1998)">
<path fill-rule="evenodd" clip-rule="evenodd" d="M208.46 64.5664H8.46583C4.05508 64.5664 0.462891 60.9594 0.462891 56.5664V8.56641C0.462891 4.15743 4.05508 0.566406 8.46583 0.566406H208.46C212.867 0.566406 216.463 4.15743 216.463 8.56641V56.5664C216.463 60.9594 212.867 64.5664 208.46 64.5664Z" fill="black"/>
<path d="M114.252 21.7377C112.81 21.7377 111.594 21.231 110.632 20.2335C109.679 19.2639 109.146 17.9273 109.17 16.5627C109.17 15.1063 109.663 13.8734 110.632 12.8958C111.59 11.8983 112.806 11.3916 114.248 11.3916C115.675 11.3916 116.891 11.8983 117.868 12.8958C118.838 13.9053 119.331 15.1382 119.331 16.5627C119.315 18.023 118.822 19.2559 117.868 20.2295C116.911 21.235 115.695 21.7377 114.252 21.7377ZM71.3331 21.7377C69.9225 21.7377 68.6986 21.239 67.6973 20.2534C66.7039 19.2719 66.1992 18.031 66.1992 16.5667C66.1992 15.1023 66.7039 13.8614 67.6973 12.8799C68.6788 11.8943 69.9026 11.3956 71.3331 11.3956C72.0325 11.3956 72.712 11.5352 73.3637 11.8185C74.0034 12.0938 74.524 12.4689 74.9094 12.9278L75.0048 13.0435L73.9279 14.1048L73.8167 13.9731C73.2087 13.247 72.3941 12.8919 71.3173 12.8919C70.3556 12.8919 69.5172 13.235 68.8258 13.9133C68.1304 14.5956 67.7767 15.4894 67.7767 16.5707C67.7767 17.652 68.1304 18.5457 68.8258 19.228C69.5172 19.9063 70.3556 20.2495 71.3173 20.2495C72.3425 20.2495 73.2047 19.9063 73.8763 19.228C74.2736 18.829 74.52 18.2704 74.6074 17.5642H71.1543V16.0719H76.0896L76.1095 16.2076C76.1452 16.4589 76.181 16.7183 76.181 16.9577C76.181 18.3342 75.7677 19.4475 74.9492 20.2694C74.0193 21.243 72.8034 21.7377 71.3331 21.7377ZM128.398 21.5263H126.877L122.216 14.037L122.255 15.3856V21.5223H120.733V11.6071H122.47L122.518 11.6829L126.9 18.7372L126.861 17.3926V11.6071H128.398V21.5263ZM102.816 21.5263H101.274V13.0993H98.6002V11.6071H105.487V13.0993H102.812V21.5263H102.816ZM97.3445 21.5263H95.8067V11.6071H97.3445V21.5263ZM88.7019 21.5263H87.1641V13.0993H84.4898V11.6071H91.3761V13.0993H88.7019V21.5263ZM83.5163 21.5103H77.6194V11.6071H83.5163V13.0993H79.1612V15.8205H83.0911V17.2968H79.1612V20.018H83.5163V21.5103ZM111.761 19.2081C112.448 19.8983 113.283 20.2455 114.252 20.2455C115.25 20.2455 116.064 19.9063 116.744 19.2081C117.419 18.5298 117.761 17.64 117.761 16.5667C117.761 15.4933 117.419 14.5996 116.748 13.9253C116.06 13.235 115.222 12.8879 114.256 12.8879C113.259 12.8879 112.444 13.227 111.769 13.9253C111.093 14.6036 110.752 15.4933 110.752 16.5667C110.752 17.64 111.089 18.5337 111.761 19.2081Z" fill="white"/>
<path fill-rule="evenodd" clip-rule="evenodd" d="M109.027 35.3755C105.271 35.3755 102.228 38.2363 102.228 42.1824C102.228 46.0927 105.291 48.9894 109.027 48.9894C112.782 48.9894 115.826 46.1086 115.826 42.1824C115.826 38.2363 112.782 35.3755 109.027 35.3755ZM109.027 46.2922C106.972 46.2922 105.204 44.5844 105.204 42.1665C105.204 39.7126 106.976 38.0408 109.027 38.0408C111.081 38.0408 112.849 39.7126 112.849 42.1665C112.853 44.6004 111.081 46.2922 109.027 46.2922ZM94.1929 35.3755C90.4378 35.3755 87.394 38.2363 87.394 42.1824C87.394 46.0927 90.4577 48.9894 94.1929 48.9894C97.948 48.9894 100.992 46.1086 100.992 42.1824C100.992 38.2363 97.9441 35.3755 94.1929 35.3755ZM94.1929 46.2922C92.1385 46.2922 90.3703 44.5844 90.3703 42.1665C90.3703 39.7126 92.1425 38.0408 94.1929 38.0408C96.2473 38.0408 98.0156 39.7126 98.0156 42.1665C98.0156 44.6004 96.2473 46.2922 94.1929 46.2922ZM76.5419 37.4543V40.3351H83.4283C83.2177 41.951 82.6852 43.144 81.8706 43.962C80.8613 44.9755 79.3036 46.0767 76.5578 46.0767C72.3259 46.0767 69.0158 42.6453 69.0158 38.3959C69.0158 34.1465 72.3259 30.7151 76.5578 30.7151C78.8427 30.7151 80.5076 31.6209 81.7434 32.778L83.778 30.7351C82.0613 29.0832 79.7765 27.8184 76.5737 27.8184C70.7682 27.8184 65.8965 32.5665 65.8965 38.38C65.8965 44.2094 70.7642 48.9416 76.5737 48.9416C79.7089 48.9416 82.0613 47.9121 83.921 45.973C85.8165 44.0697 86.4165 41.3844 86.4165 39.2179C86.4165 38.5435 86.3648 37.9371 86.2575 37.4223H76.538C76.5419 37.4184 76.5419 37.4543 76.5419 37.4543ZM148.739 39.6967C148.171 38.1685 146.455 35.3595 142.934 35.3595C139.445 35.3595 136.544 38.1166 136.544 42.1665C136.544 45.9889 139.413 48.9735 143.272 48.9735C146.371 48.9735 148.175 47.0702 148.918 45.953L146.617 44.4049C145.855 45.542 144.794 46.2882 143.288 46.2882C141.766 46.2882 140.701 45.5939 139.993 44.2253L149.057 40.4548C149.057 40.4588 148.739 39.6967 148.739 39.6967ZM139.497 41.971C139.425 39.3415 141.531 38.0049 143.037 38.0049C144.225 38.0049 145.215 38.5914 145.553 39.4453L139.497 41.971ZM132.133 48.5665H135.11V28.5685H132.133V48.5665ZM127.246 36.8877H127.139C126.467 36.0857 125.191 35.3595 123.562 35.3595C120.181 35.3595 117.065 38.348 117.065 42.1864C117.065 46.0089 120.165 48.9615 123.562 48.9615C125.172 48.9615 126.467 48.2313 127.139 47.4134H127.246V48.3909C127.246 50.9884 125.863 52.3889 123.634 52.3889C121.81 52.3889 120.677 51.0722 120.216 49.971L117.63 51.0563C118.373 52.8518 120.356 55.0742 123.63 55.0742C127.119 55.0742 130.075 53.0114 130.075 47.98V35.7665H127.262V36.8877C127.266 36.8877 127.246 36.8877 127.246 36.8877ZM123.828 46.2922C121.774 46.2922 120.057 44.5685 120.057 42.1864C120.057 39.7844 121.774 38.0448 123.828 38.0448C125.863 38.0448 127.441 39.8044 127.441 42.1864C127.46 44.5685 125.867 46.2922 123.828 46.2922ZM162.675 28.5685H155.558V48.5665H158.534V40.9934H162.679C165.973 40.9934 169.212 38.5954 169.212 34.7889C169.212 30.9824 165.985 28.5685 162.675 28.5685ZM162.762 38.2004H158.53V31.3376H162.762C164.992 31.3376 166.251 33.1849 166.251 34.769C166.251 36.3371 164.976 38.2004 162.762 38.2004ZM181.141 35.3396C178.979 35.3396 176.75 36.3012 175.828 38.3959L178.466 39.4972C179.035 38.3959 180.076 38.0209 181.176 38.0209C182.718 38.0209 184.276 38.9465 184.312 40.5984V40.8099C183.779 40.5066 182.611 40.0438 181.212 40.0438C178.363 40.0438 175.474 41.6079 175.474 44.5406C175.474 47.2258 177.811 48.9495 180.413 48.9495C182.412 48.9495 183.513 48.0438 184.2 46.9944H184.308V48.5425H187.177V40.8817C187.177 37.3146 184.538 35.3396 181.141 35.3396ZM180.767 46.2922C179.794 46.2922 178.431 45.8134 178.431 44.5844C178.431 43.0363 180.131 42.4498 181.582 42.4498C182.893 42.4498 183.513 42.7331 184.292 43.1241C184.077 44.9196 182.567 46.2762 180.767 46.2922ZM197.643 35.7665L194.226 44.4408H194.119L190.578 35.7665H187.375L192.688 47.8922L189.66 54.6313H192.76L200.933 35.7665H197.643ZM170.853 48.5665H173.829V28.5685H170.853V48.5665Z" fill="white"/>
<path fill-rule="evenodd" clip-rule="evenodd" d="M17.0885 12.6204C16.6276 13.1192 16.3613 13.8813 16.3613 14.8788V50.2583C16.3613 51.2558 16.6276 52.0179 17.1044 52.4967L17.2276 52.6045L36.9687 32.782V32.3391L17.2117 12.5127L17.0885 12.6204Z" fill="url(#paint0_linear_167_1998)"/>
<path fill-rule="evenodd" clip-rule="evenodd" d="M43.5375 39.4094L36.9531 32.7979V32.3351L43.5375 25.7236L43.6806 25.8114L51.469 30.2563C53.6982 31.5171 53.6982 33.5999 51.469 34.8767L43.6806 39.3216L43.5375 39.4094Z" fill="url(#paint1_linear_167_1998)"/>
<path fill-rule="evenodd" clip-rule="evenodd" d="M43.6806 39.3215L36.9532 32.5664L17.0889 52.5125C17.816 53.2946 19.036 53.3824 20.3989 52.6203L43.6806 39.3215Z" fill="url(#paint2_linear_167_1998)"/>
<path fill-rule="evenodd" clip-rule="evenodd" d="M43.6806 25.8113L20.3989 12.5325C19.036 11.7505 17.8121 11.8582 17.0889 12.6402L36.9532 32.5664L43.6806 25.8113Z" fill="url(#paint3_linear_167_1998)"/>
<path opacity="0.2" fill-rule="evenodd" clip-rule="evenodd" d="M43.5374 39.1777L20.4146 52.3687C19.1231 53.1148 17.9708 53.063 17.2277 52.3847L17.1045 52.5084L17.2277 52.6161C17.9708 53.2904 19.1231 53.3463 20.4146 52.6001L43.6963 39.3214L43.5374 39.1777Z" fill="black"/>
<path opacity="0.12" fill-rule="evenodd" clip-rule="evenodd" d="M51.4689 34.6452L43.5176 39.1779L43.6606 39.3215L51.449 34.8766C52.5656 34.2382 53.114 33.4003 53.114 32.5664C53.0464 33.3325 52.4782 34.0587 51.4689 34.6452Z" fill="black"/>
<path opacity="0.25" fill-rule="evenodd" clip-rule="evenodd" d="M20.3986 12.7641L51.4686 30.4878C52.4779 31.0583 53.0461 31.8045 53.1335 32.5666C53.1335 31.7326 52.5852 30.8947 51.4686 30.2563L20.3986 12.5326C18.1693 11.2518 16.3613 12.3212 16.3613 14.8788V15.1102C16.3613 12.5486 18.1693 11.4992 20.3986 12.7641Z" fill="white"/>
</g>
<defs>
<linearGradient id="paint0_linear_167_1998" x1="35.198" y1="14.4971" x2="3.55892" y2="22.8928" gradientUnits="userSpaceOnUse">
<stop stop-color="#00A0FF"/>
<stop offset="0.00657" stop-color="#00A1FF"/>
<stop offset="0.2601" stop-color="#00BEFF"/>
<stop offset="0.5122" stop-color="#00D2FF"/>
<stop offset="0.7604" stop-color="#00DFFF"/>
<stop offset="1" stop-color="#00E3FF"/>
</linearGradient>
<linearGradient id="paint1_linear_167_1998" x1="54.3761" y1="32.5666" x2="15.8197" y2="32.5666" gradientUnits="userSpaceOnUse">
<stop stop-color="#FFE000"/>
<stop offset="0.4087" stop-color="#FFBD00"/>
<stop offset="0.7754" stop-color="#FFA500"/>
<stop offset="1" stop-color="#FF9C00"/>
</linearGradient>
<linearGradient id="paint2_linear_167_1998" x1="40.0225" y1="36.2422" x2="14.482" y2="79.0525" gradientUnits="userSpaceOnUse">
<stop stop-color="#FF3A44"/>
<stop offset="1" stop-color="#C31162"/>
</linearGradient>
<linearGradient id="paint3_linear_167_1998" x1="12.0868" y1="0.852494" x2="23.4815" y2="19.9723" gradientUnits="userSpaceOnUse">
<stop stop-color="#32A071"/>
<stop offset="0.0685" stop-color="#2DA771"/>
<stop offset="0.4762" stop-color="#15CF74"/>
<stop offset="0.8009" stop-color="#06E775"/>
<stop offset="1" stop-color="#00F076"/>
</linearGradient>
<clipPath id="clip0_167_1998">
<rect width="216" height="64" fill="white" transform="translate(0.462891 0.566406)"/>
</clipPath>
</defs>
</svg>
