<svg width="82" height="81" viewBox="0 0 82 81" fill="none" xmlns="http://www.w3.org/2000/svg">
<g clip-path="url(#clip0_166_1764)">
<rect width="82" height="81" rx="16" fill="#F8F9FA"/>
<rect width="1024" height="1024" fill="#D1F8C9"/>
<path fill-rule="evenodd" clip-rule="evenodd" d="M53.4406 21.579C57.1036 26.0554 59.3059 31.1379 60.2186 36.7376V36.7353C60.8034 40.3225 60.8059 43.9168 59.8369 47.4432C57.8328 54.7347 53.0026 59.279 45.2507 60.8889C44.4188 61.0621 43.5795 61.2142 42.7353 61.3125C42.6716 61.3195 42.6154 61.3312 42.5664 61.3452H42.1892V67.8691H39.8101V61.3452H39.4344C39.4226 61.3441 39.412 61.3419 39.4012 61.3397C39.3895 61.3373 39.3774 61.3348 39.3634 61.3335C36.755 61.0083 34.2077 60.4677 31.8317 59.3328C27.5374 57.2806 24.6109 54.0654 22.8662 49.809C21.7479 47.0828 21.376 44.2561 21.3809 41.3568C21.3907 36.8289 22.2471 32.4577 24.2487 28.3463C26.8131 23.0719 30.3122 18.4854 35.5511 15.3311C36.5408 14.7347 37.6121 14.2613 38.6818 13.7887C39.035 13.6326 39.388 13.4766 39.7378 13.3163C40.5942 12.9232 41.4482 12.9981 42.3315 13.3444C46.8314 15.1111 50.4627 17.9402 53.4406 21.579ZM39.8101 59.2143C38.1083 59.1457 36.5453 58.8009 35.0176 58.3009C29.1034 56.3633 25.5529 52.3853 24.1753 46.6195C22.5628 39.8639 23.9477 33.4873 27.1606 27.4267C29.4338 23.1374 32.6319 19.5642 36.9214 16.9715C37.5294 16.6047 38.1747 16.2957 38.8199 15.9868C39.138 15.8345 39.4561 15.6822 39.7696 15.523C40.5502 15.1252 41.316 15.1884 42.1113 15.5183C45.5859 16.9504 48.417 19.1851 50.8713 21.8972C54.7937 26.2333 57.0914 31.2854 58.0555 36.9131C58.7064 40.7063 58.5987 44.462 57.3483 48.1499H57.3459C55.3614 54.0023 51.1429 57.4819 44.9302 58.8344C44.2768 58.9771 43.6162 59.0778 42.9555 59.1784C42.7279 59.2135 42.5689 59.2229 42.4514 59.2018C42.3643 59.2127 42.2769 59.2227 42.1892 59.2317V49.866L48.6165 44.3509L47.0276 42.6575L42.1892 46.8093V26.444H39.8101V38.719L31.7814 31.6468L30.1696 33.3202L39.8101 41.8122V59.2143Z" fill="#051525"/>
</g>
<defs>
<clipPath id="clip0_166_1764">
<rect width="82" height="81" rx="16" fill="white"/>
</clipPath>
</defs>
</svg>
