<svg width="192" height="65" viewBox="0 0 192 65" fill="none" xmlns="http://www.w3.org/2000/svg">
<g clip-path="url(#clip0_167_1997)">
<path d="M13.5114 63.1668C13.0239 63.1668 12.5482 63.1606 12.0645 63.1497C11.0626 63.1366 10.063 63.0494 9.07391 62.8887C8.15165 62.7299 7.25823 62.4344 6.42312 62.0121C5.59567 61.5932 4.84097 61.044 4.18792 60.3855C3.52543 59.7348 2.97387 58.98 2.55511 58.1511C2.13173 57.3169 1.83873 56.4226 1.68631 55.4996C1.52171 54.5078 1.43265 53.5049 1.41991 52.4996C1.40976 52.1622 1.39648 51.0386 1.39648 51.0386V14.0777C1.39648 14.0777 1.41063 12.9715 1.41999 12.6465C1.43219 11.6428 1.52073 10.6414 1.68484 9.65117C1.83754 8.7256 2.13077 7.82879 2.55437 6.9918C2.9716 6.16351 3.52009 5.40817 4.1786 4.75509C4.83636 4.09579 5.59348 3.54376 6.42234 3.11913C7.25553 2.69815 8.14726 2.40477 9.06765 2.24883C10.06 2.08653 11.063 1.99879 12.0685 1.98633L13.5122 1.9668H177.942L179.403 1.98712C180.399 1.99896 181.393 2.08592 182.376 2.24726C183.306 2.40516 184.207 2.70058 185.05 3.12382C186.71 3.97957 188.061 5.33346 188.914 6.99571C189.331 7.82692 189.619 8.71641 189.77 9.63398C189.936 10.6324 190.029 11.6416 190.048 12.6535C190.053 13.1066 190.053 13.5934 190.053 14.0777C190.065 14.6777 190.065 15.2488 190.065 15.8246V49.3105C190.065 49.8918 190.065 50.459 190.053 51.0308C190.053 51.5511 190.053 52.0278 190.046 52.5183C190.028 53.5122 189.936 54.5034 189.773 55.4839C189.624 56.4136 189.332 57.3148 188.909 58.1559C188.487 58.9758 187.939 59.724 187.284 60.373C186.63 61.0351 185.874 61.5875 185.045 62.009C184.205 62.4346 183.305 62.7312 182.376 62.8887C181.387 63.0503 180.388 63.1375 179.386 63.1497C178.917 63.1606 178.426 63.1668 177.95 63.1668L176.215 63.17L13.5114 63.1668Z" fill="black"/>
<path d="M39.6298 33.0471C39.647 31.7117 40.0017 30.4023 40.661 29.2407C41.3202 28.0792 42.2625 27.1033 43.4003 26.4038C42.6775 25.3716 41.724 24.5221 40.6155 23.9228C39.507 23.3235 38.274 22.991 37.0144 22.9515C34.3277 22.6695 31.7229 24.5593 30.3538 24.5593C28.9582 24.5593 26.8502 22.9795 24.5802 23.0262C23.1119 23.0737 21.681 23.5007 20.4268 24.2655C19.1726 25.0304 18.1379 26.1072 17.4235 27.3908C14.3291 32.7483 16.6373 40.622 19.6014 44.9526C21.0845 47.0731 22.8177 49.4418 25.0857 49.3578C27.305 49.2658 28.1338 47.9427 30.8127 47.9427C33.4667 47.9427 34.2444 49.3578 36.5583 49.3044C38.9397 49.2658 40.4401 47.1745 41.8711 45.0338C42.9367 43.5228 43.7566 41.8529 44.3006 40.0858C42.9171 39.5006 41.7364 38.5211 40.9058 37.2695C40.0752 36.0178 39.6314 34.5493 39.6298 33.0471V33.0471Z" fill="white"/>
<path d="M35.2589 20.1035C36.5574 18.5448 37.1971 16.5413 37.0422 14.5186C35.0584 14.7269 33.226 15.675 31.91 17.1739C31.2666 17.9062 30.7738 18.7581 30.4598 19.6809C30.1458 20.6038 30.0168 21.5794 30.0801 22.5522C31.0723 22.5624 32.0539 22.3473 32.951 21.9232C33.8481 21.499 34.6372 20.8769 35.2589 20.1035Z" fill="white"/>
<path d="M67.683 43.9897H60.1096L58.2908 49.36H55.083L62.2565 29.4912H65.5893L72.7627 49.36H69.5002L67.683 43.9897ZM60.8939 41.5116H66.8971L63.9378 32.7959H63.8549L60.8939 41.5116Z" fill="white"/>
<path d="M88.2547 42.1177C88.2547 46.6193 85.8454 49.5115 82.2094 49.5115C81.2884 49.5597 80.3724 49.3475 79.5663 48.8993C78.7602 48.451 78.0967 47.7849 77.6516 46.9771H77.5828V54.1521H74.6094V34.874H77.4875V37.2833H77.5422C78.0078 36.4794 78.6825 35.8167 79.4947 35.3657C80.3069 34.9148 81.2262 34.6925 82.1547 34.7224C85.8312 34.7224 88.2547 37.6287 88.2547 42.1177ZM85.1985 42.1177C85.1985 39.1849 83.6828 37.2568 81.3703 37.2568C79.0985 37.2568 77.5703 39.2255 77.5703 42.1177C77.5703 45.0365 79.0985 46.9912 81.3703 46.9912C83.6829 46.9912 85.1985 45.0771 85.1985 42.1177Z" fill="white"/>
<path d="M104.199 42.1177C104.199 46.6193 101.79 49.5115 98.1538 49.5115C97.2327 49.5596 96.3167 49.3475 95.5106 48.8992C94.7046 48.451 94.041 47.7849 93.596 46.9771H93.5271V54.1521H90.5537V34.874H93.4318V37.2833H93.4865C93.952 36.4794 94.6268 35.8167 95.439 35.3657C96.2512 34.9148 97.1705 34.6924 98.099 34.7224C101.776 34.7224 104.199 37.6286 104.199 42.1177ZM101.143 42.1177C101.143 39.1849 99.6272 37.2568 97.3147 37.2568C95.0428 37.2568 93.5147 39.2255 93.5147 42.1177C93.5147 45.0365 95.0428 46.9912 97.3147 46.9912C99.6272 46.9912 101.143 45.0771 101.143 42.1177H101.143Z" fill="white"/>
<path d="M114.736 43.8243C114.957 45.7946 116.871 47.0883 119.486 47.0883C121.992 47.0883 123.796 45.7946 123.796 44.018C123.796 42.4758 122.708 41.5524 120.133 40.9195L117.558 40.2992C113.91 39.418 112.216 37.7117 112.216 34.943C112.216 31.5148 115.203 29.1602 119.446 29.1602C123.644 29.1602 126.522 31.5148 126.619 34.943H123.617C123.438 32.9602 121.799 31.7633 119.403 31.7633C117.008 31.7633 115.369 32.9742 115.369 34.7367C115.369 36.1414 116.416 36.968 118.977 37.6007L121.166 38.1382C125.242 39.1023 126.936 40.7398 126.936 43.646C126.936 47.3632 123.975 49.6914 119.266 49.6914C114.86 49.6914 111.885 47.4179 111.692 43.8242L114.736 43.8243Z" fill="white"/>
<path d="M133.353 31.4463V34.8744H136.108V37.2291H133.353V45.215C133.353 46.4557 133.905 47.0338 135.116 47.0338C135.443 47.0281 135.77 47.0051 136.094 46.965V49.3056C135.55 49.4073 134.996 49.4534 134.443 49.4431C131.51 49.4431 130.366 48.3416 130.366 45.5322V37.2291H128.26V34.8744H130.366V31.4463H133.353Z" fill="white"/>
<path d="M137.703 42.1182C137.703 37.5604 140.387 34.6963 144.573 34.6963C148.773 34.6963 151.445 37.5603 151.445 42.1182C151.445 46.6885 148.788 49.54 144.573 49.54C140.361 49.54 137.703 46.6885 137.703 42.1182ZM148.416 42.1182C148.416 38.9916 146.983 37.1463 144.573 37.1463C142.164 37.1463 140.733 39.0057 140.733 42.1182C140.733 45.2572 142.164 47.0885 144.573 47.0885C146.983 47.0885 148.416 45.2572 148.416 42.1182H148.416Z" fill="white"/>
<path d="M153.897 34.8738H156.733V37.3394H156.802C156.994 36.5694 157.445 35.8888 158.08 35.4122C158.714 34.9356 159.494 34.692 160.287 34.7222C160.629 34.721 160.971 34.7583 161.305 34.8332V37.6144C160.873 37.4823 160.421 37.4216 159.969 37.4348C159.537 37.4172 159.107 37.4934 158.707 37.658C158.307 37.8226 157.948 38.0718 157.653 38.3884C157.359 38.7051 157.137 39.0816 157.002 39.4923C156.867 39.903 156.822 40.338 156.871 40.7676V49.3597H153.897L153.897 34.8738Z" fill="white"/>
<path d="M175.014 45.1057C174.614 47.7353 172.054 49.54 168.777 49.54C164.563 49.54 161.947 46.7166 161.947 42.1869C161.947 37.6432 164.577 34.6963 168.652 34.6963C172.66 34.6963 175.18 37.4494 175.18 41.8416V42.8604H164.949V43.04C164.902 43.5732 164.968 44.1102 165.145 44.6156C165.321 45.1209 165.603 45.583 165.971 45.971C166.34 46.3591 166.787 46.6643 167.282 46.8664C167.778 47.0685 168.311 47.1628 168.846 47.1432C169.548 47.209 170.254 47.0463 170.856 46.6791C171.459 46.312 171.927 45.7602 172.191 45.1056L175.014 45.1057ZM164.963 40.7822H172.205C172.232 40.3029 172.159 39.8232 171.992 39.3732C171.824 38.9233 171.565 38.5128 171.232 38.1676C170.898 37.8224 170.497 37.5499 170.053 37.3671C169.609 37.1844 169.132 37.0954 168.652 37.1057C168.168 37.1028 167.688 37.1958 167.24 37.3794C166.792 37.563 166.384 37.8335 166.041 38.1753C165.698 38.5171 165.427 38.9235 165.241 39.3709C165.056 39.8184 164.962 40.298 164.963 40.7822V40.7822Z" fill="white"/>
<path d="M60.5217 14.5362C61.1451 14.4915 61.7706 14.5857 62.3532 14.812C62.9357 15.0383 63.4608 15.391 63.8906 15.8448C64.3203 16.2986 64.644 16.8421 64.8382 17.4362C65.0325 18.0302 65.0925 18.6599 65.0139 19.28C65.0139 22.33 63.3654 24.0832 60.5217 24.0832H57.0732V14.5362H60.5217ZM58.556 22.733H60.356C60.8015 22.7597 61.2473 22.6866 61.6609 22.5192C62.0746 22.3518 62.4457 22.0943 62.7473 21.7654C63.0489 21.4365 63.2734 21.0445 63.4043 20.6179C63.5353 20.1913 63.5695 19.7409 63.5045 19.2994C63.5648 18.8597 63.5271 18.4121 63.3941 17.9886C63.2611 17.5651 63.0361 17.1763 62.7352 16.85C62.4343 16.5237 62.065 16.2681 61.6537 16.1013C61.2423 15.9345 60.7992 15.8608 60.356 15.8854H58.556V22.733Z" fill="white"/>
<path d="M66.6889 20.4775C66.6436 20.004 66.6978 19.5263 66.8479 19.075C66.9981 18.6237 67.2409 18.2087 67.5608 17.8567C67.8807 17.5048 68.2707 17.2235 68.7056 17.0311C69.1406 16.8387 69.611 16.7393 70.0866 16.7393C70.5622 16.7393 71.0326 16.8387 71.4676 17.0311C71.9025 17.2235 72.2925 17.5048 72.6124 17.8567C72.9323 18.2087 73.1751 18.6237 73.3252 19.075C73.4754 19.5263 73.5295 20.004 73.4842 20.4775C73.5304 20.9514 73.4769 21.4298 73.3271 21.8818C73.1774 22.3339 72.9347 22.7496 72.6147 23.1022C72.2947 23.4549 71.9045 23.7367 71.4691 23.9296C71.0337 24.1224 70.5628 24.2221 70.0866 24.2221C69.6104 24.2221 69.1395 24.1224 68.7041 23.9296C68.2687 23.7367 67.8784 23.4549 67.5584 23.1022C67.2384 22.7496 66.9958 22.3339 66.846 21.8818C66.6963 21.4298 66.6428 20.9514 66.6889 20.4775V20.4775ZM72.0217 20.4775C72.0217 18.9158 71.3202 18.0025 70.0889 18.0025C68.853 18.0025 68.1577 18.9158 68.1577 20.4775C68.1577 22.0517 68.853 22.9579 70.0889 22.9579C71.3202 22.9579 72.0217 22.0454 72.0217 20.4775H72.0217Z" fill="white"/>
<path d="M82.517 24.0826H81.042L79.5529 18.7764H79.4404L77.9576 24.0826H76.4967L74.5107 16.8779H75.9529L77.2436 22.3755H77.3498L78.8311 16.8779H80.1951L81.6764 22.3755H81.7889L83.0732 16.8779H84.4951L82.517 24.0826Z" fill="white"/>
<path d="M86.1651 16.8776H87.5338V18.0221H87.64C87.8203 17.6111 88.1243 17.2665 88.5097 17.0364C88.8951 16.8063 89.3427 16.7022 89.79 16.7385C90.1406 16.7122 90.4926 16.765 90.82 16.8932C91.1473 17.0213 91.4416 17.2215 91.6811 17.4789C91.9206 17.7362 92.0991 18.0441 92.2035 18.3799C92.3078 18.7156 92.3352 19.0705 92.2838 19.4182V24.0822H90.8619V19.7753C90.8619 18.6175 90.3588 18.0417 89.3072 18.0417C89.0692 18.0306 88.8316 18.0711 88.6107 18.1604C88.3898 18.2498 88.1909 18.3858 88.0275 18.5592C87.8641 18.7326 87.7401 18.9393 87.6641 19.1651C87.588 19.3909 87.5617 19.6305 87.5869 19.8674V24.0823H86.165L86.1651 16.8776Z" fill="white"/>
<path d="M94.5498 14.0654H95.9717V24.0826H94.5498V14.0654Z" fill="white"/>
<path d="M97.9486 20.4776C97.9034 20.0041 97.9576 19.5264 98.1078 19.075C98.2579 18.6237 98.5008 18.2087 98.8207 17.8568C99.1407 17.5048 99.5306 17.2236 99.9656 17.0311C100.401 16.8387 100.871 16.7393 101.347 16.7393C101.822 16.7393 102.293 16.8387 102.728 17.0311C103.163 17.2236 103.553 17.5048 103.873 17.8568C104.193 18.2087 104.435 18.6237 104.586 19.075C104.736 19.5264 104.79 20.0041 104.745 20.4776C104.791 20.9516 104.737 21.4299 104.587 21.882C104.438 22.334 104.195 22.7497 103.875 23.1024C103.555 23.455 103.165 23.7368 102.729 23.9297C102.294 24.1225 101.823 24.2222 101.347 24.2222C100.87 24.2222 100.4 24.1225 99.9641 23.9297C99.5287 23.7368 99.1385 23.455 98.8184 23.1024C98.4984 22.7497 98.2557 22.334 98.1059 21.882C97.9561 21.4299 97.9026 20.9516 97.9486 20.4776V20.4776ZM103.281 20.4776C103.281 18.9159 102.58 18.0026 101.349 18.0026C100.113 18.0026 99.4175 18.9159 99.4175 20.4776C99.4175 22.0518 100.113 22.9581 101.349 22.9581C102.58 22.9581 103.281 22.0456 103.281 20.4776H103.281Z" fill="white"/>
<path d="M106.241 22.0455C106.241 20.7486 107.207 20.001 108.921 19.8947L110.872 19.7822V19.1603C110.872 18.3994 110.369 17.9697 109.397 17.9697C108.604 17.9697 108.054 18.2611 107.896 18.7705H106.519C106.665 17.533 107.829 16.7393 109.463 16.7393C111.269 16.7393 112.288 17.6385 112.288 19.1603V24.083H110.919V23.0705H110.807C110.578 23.4337 110.258 23.7298 109.878 23.9285C109.497 24.1272 109.071 24.2215 108.643 24.2017C108.34 24.2332 108.035 24.2009 107.745 24.107C107.456 24.0131 107.19 23.8596 106.964 23.6564C106.737 23.4533 106.556 23.205 106.432 22.9275C106.307 22.65 106.242 22.3496 106.241 22.0455V22.0455ZM110.872 21.4299V20.8275L109.113 20.94C108.121 21.0064 107.671 21.3439 107.671 21.9791C107.671 22.6275 108.233 23.0049 109.007 23.0049C109.234 23.0278 109.462 23.0049 109.68 22.9376C109.898 22.8702 110.1 22.7598 110.274 22.6129C110.448 22.4659 110.59 22.2854 110.693 22.0822C110.796 21.879 110.857 21.6571 110.872 21.4299V21.4299Z" fill="white"/>
<path d="M114.157 20.4772C114.157 18.2006 115.328 16.7584 117.148 16.7584C117.598 16.7377 118.045 16.8455 118.436 17.0694C118.827 17.2932 119.147 17.6238 119.357 18.0224H119.463V14.0654H120.885V24.0826H119.523V22.9443H119.41C119.184 23.3403 118.853 23.6668 118.454 23.8883C118.056 24.1099 117.604 24.2182 117.148 24.2013C115.315 24.2014 114.157 22.7592 114.157 20.4772ZM115.626 20.4772C115.626 22.0053 116.346 22.9248 117.551 22.9248C118.749 22.9248 119.49 21.992 119.49 20.4834C119.49 18.9819 118.742 18.0358 117.551 18.0358C116.354 18.0358 115.626 18.9615 115.626 20.4772H115.626Z" fill="white"/>
<path d="M126.768 20.4775C126.723 20.004 126.777 19.5263 126.927 19.075C127.077 18.6237 127.32 18.2087 127.64 17.8567C127.96 17.5048 128.35 17.2235 128.785 17.0311C129.22 16.8387 129.69 16.7393 130.166 16.7393C130.641 16.7393 131.112 16.8387 131.547 17.0311C131.982 17.2235 132.372 17.5048 132.691 17.8567C133.011 18.2087 133.254 18.6237 133.404 19.075C133.554 19.5263 133.609 20.004 133.563 20.4775C133.609 20.9514 133.556 21.4298 133.406 21.8818C133.256 22.3339 133.014 22.7496 132.694 23.1022C132.374 23.4549 131.984 23.7367 131.548 23.9296C131.113 24.1224 130.642 24.2221 130.166 24.2221C129.689 24.2221 129.219 24.1224 128.783 23.9296C128.348 23.7367 127.958 23.4549 127.638 23.1022C127.318 22.7496 127.075 22.3339 126.925 21.8818C126.775 21.4298 126.722 20.9514 126.768 20.4775V20.4775ZM132.101 20.4775C132.101 18.9158 131.399 18.0025 130.168 18.0025C128.932 18.0025 128.237 18.9158 128.237 20.4775C128.237 22.0517 128.932 22.9579 130.168 22.9579C131.399 22.9579 132.101 22.0454 132.101 20.4775Z" fill="white"/>
<path d="M135.471 16.8776H136.839V18.0221H136.946C137.126 17.6111 137.43 17.2665 137.815 17.0364C138.201 16.8063 138.648 16.7022 139.096 16.7385C139.446 16.7122 139.798 16.765 140.126 16.8932C140.453 17.0213 140.747 17.2215 140.987 17.4789C141.226 17.7362 141.405 18.0441 141.509 18.3799C141.613 18.7156 141.641 19.0705 141.589 19.4182V24.0822H140.168V19.7753C140.168 18.6175 139.664 18.0417 138.613 18.0417C138.375 18.0306 138.137 18.0711 137.916 18.1604C137.696 18.2498 137.497 18.3858 137.333 18.5592C137.17 18.7326 137.046 18.9393 136.97 19.1651C136.894 19.3909 136.867 19.6305 136.893 19.8674V24.0823H135.471V16.8776Z" fill="white"/>
<path d="M149.624 15.084V16.9105H151.185V18.1082H149.624V21.8129C149.624 22.5676 149.935 22.898 150.643 22.898C150.824 22.8975 151.005 22.8865 151.185 22.8652V24.0496C150.929 24.0953 150.671 24.1196 150.411 24.1223C148.83 24.1223 148.2 23.566 148.2 22.1769V18.1081H147.057V16.9105H148.2V15.084H149.624Z" fill="white"/>
<path d="M153.127 14.0654H154.536V18.0357H154.649C154.838 17.6208 155.15 17.2743 155.543 17.0433C155.936 16.8124 156.391 16.7082 156.846 16.7451C157.194 16.7261 157.543 16.7844 157.867 16.9156C158.19 17.0469 158.481 17.248 158.718 17.5045C158.955 17.7611 159.132 18.0667 159.238 18.3998C159.343 18.7328 159.373 19.0849 159.327 19.4311V24.0826H157.904V19.7818C157.904 18.631 157.368 18.0482 156.363 18.0482C156.119 18.0282 155.873 18.0618 155.643 18.1467C155.413 18.2316 155.204 18.3657 155.031 18.5397C154.858 18.7136 154.726 18.9233 154.642 19.1539C154.559 19.3845 154.527 19.6305 154.549 19.8748V24.0826H153.127L153.127 14.0654Z" fill="white"/>
<path d="M167.617 22.1368C167.424 22.7953 167.006 23.3649 166.435 23.7459C165.864 24.127 165.178 24.2952 164.496 24.2212C164.021 24.2337 163.549 24.1428 163.113 23.9548C162.677 23.7667 162.287 23.4861 161.971 23.1322C161.654 22.7784 161.418 22.3599 161.279 21.9058C161.141 21.4517 161.103 20.9728 161.167 20.5025C161.104 20.0306 161.143 19.5508 161.282 19.0953C161.42 18.6398 161.655 18.2194 161.97 17.8625C162.284 17.5055 162.672 17.2205 163.107 17.0265C163.542 16.8326 164.013 16.7343 164.489 16.7384C166.494 16.7384 167.703 18.108 167.703 20.3704V20.8665H162.616V20.9462C162.594 21.2106 162.627 21.4767 162.713 21.7275C162.8 21.9783 162.938 22.2083 163.119 22.4026C163.299 22.5969 163.519 22.7514 163.762 22.856C164.006 22.9606 164.269 23.0132 164.535 23.0102C164.875 23.0511 165.219 22.9898 165.525 22.8343C165.83 22.6788 166.082 22.436 166.249 22.1368L167.617 22.1368ZM162.616 19.815H166.255C166.273 19.5732 166.24 19.3303 166.158 19.1019C166.077 18.8736 165.948 18.6648 165.781 18.489C165.614 18.3133 165.413 18.1744 165.189 18.0813C164.965 17.9882 164.724 17.943 164.481 17.9486C164.236 17.9455 163.991 17.9916 163.764 18.0844C163.536 18.1771 163.329 18.3144 163.155 18.4884C162.981 18.6623 162.844 18.8693 162.751 19.0971C162.659 19.325 162.613 19.569 162.616 19.815H162.616Z" fill="white"/>
</g>
<defs>
<clipPath id="clip0_167_1997">
<rect width="191.463" height="64" fill="white" transform="translate(0 0.566406)"/>
</clipPath>
</defs>
</svg>
