<svg width="179" height="33" viewBox="0 0 179 33" fill="none" xmlns="http://www.w3.org/2000/svg">
<g clip-path="url(#clip0_167_2050)">
<rect y="0.566406" width="32" height="32" rx="2" fill="#F8F9FA"/>
<rect y="0.566406" width="1024" height="1024" fill="#D1F8C9"/>
<path fill-rule="evenodd" clip-rule="evenodd" d="M20.8549 9.09143C22.2843 10.8599 23.1438 12.8678 23.4999 15.08V15.0791C23.7282 16.4963 23.7291 17.9162 23.351 19.3094C22.5689 22.19 20.6839 23.9853 17.6588 24.6213C17.3341 24.6897 17.0066 24.7498 16.6772 24.7886C16.6523 24.7914 16.6304 24.796 16.6113 24.8016H16.464V27.3788H15.5355V24.8016H15.389C15.3795 24.8006 15.3718 24.7979 15.3613 24.7969C14.3434 24.6684 13.3494 24.4549 12.4221 24.0065C10.7463 23.1958 9.60424 21.9256 8.92339 20.244C8.487 19.167 8.34186 18.0503 8.34377 16.9049C8.34759 15.1161 8.6818 13.3892 9.46291 11.7649C10.4636 9.68123 11.8292 7.8693 13.8736 6.62314C14.2598 6.38753 14.6779 6.20052 15.0953 6.01378C15.2332 5.95213 15.3709 5.89051 15.5074 5.82718C15.8416 5.67188 16.1749 5.70146 16.5196 5.83828C18.2757 6.53624 19.6927 7.6539 20.8549 9.09143ZM15.5355 23.9597C14.8714 23.9326 14.2616 23.7964 13.6654 23.5989C11.3574 22.8334 9.97187 21.2618 9.43426 18.984C8.80499 16.3151 9.34546 13.796 10.5992 11.4016C11.4863 9.70711 12.7344 8.29547 14.4083 7.27118C14.6456 7.12629 14.8975 7.00422 15.1492 6.88217C15.2734 6.822 15.3975 6.76183 15.5198 6.69894C15.8245 6.54179 16.1233 6.56675 16.4337 6.69709C17.7896 7.26286 18.8945 8.14571 19.8522 9.21715C21.3829 10.9302 22.2796 12.9261 22.6558 15.1494C22.9098 16.6479 22.8678 18.1316 22.3798 19.5886H22.3789C21.6045 21.9006 19.9582 23.2753 17.5337 23.8096C17.2788 23.866 17.0209 23.9058 16.7631 23.9455C16.6743 23.9594 16.6122 23.9631 16.5664 23.9548C16.5324 23.9591 16.4982 23.963 16.464 23.9666V20.2665L18.9722 18.0877L18.3521 17.4187L16.464 19.0589V11.0134H15.5355V15.8628L12.4024 13.0688L11.7734 13.7299L15.5355 17.0848V23.9597Z" fill="#051525"/>
</g>
<path d="M49.5852 23.5664V10.4755H51.1705V16.305H58.1506V10.4755H59.7358V23.5664H58.1506V17.7113H51.1705V23.5664H49.5852ZM62.3449 23.5664V13.7482H63.8534V23.5664H62.3449ZM63.1119 12.1119C62.8179 12.1119 62.5644 12.0117 62.3513 11.8114C62.1425 11.6112 62.0381 11.3704 62.0381 11.0891C62.0381 10.8079 62.1425 10.5671 62.3513 10.3668C62.5644 10.1665 62.8179 10.0664 63.1119 10.0664C63.406 10.0664 63.6574 10.1665 63.8662 10.3668C64.0793 10.5671 64.1858 10.8079 64.1858 11.0891C64.1858 11.3704 64.0793 11.6112 63.8662 11.8114C63.6574 12.0117 63.406 12.1119 63.1119 12.1119ZM69.9638 23.771C69.1456 23.771 68.4233 23.5643 67.7969 23.1509C67.1704 22.7333 66.6804 22.1452 66.3267 21.3867C65.973 20.6239 65.7962 19.7227 65.7962 18.6829C65.7962 17.6516 65.973 16.7567 66.3267 15.9982C66.6804 15.2397 67.1726 14.6538 67.8033 14.2404C68.4339 13.8271 69.1626 13.6204 69.9893 13.6204C70.6285 13.6204 71.1335 13.7269 71.5043 13.94C71.8793 14.1488 72.1648 14.3874 72.3608 14.6559C72.5611 14.9201 72.7166 15.1374 72.8274 15.3079H72.9552V10.4755H74.4638V23.5664H73.0064V22.0579H72.8274C72.7166 22.2369 72.5589 22.4627 72.3544 22.7354C72.1499 23.0039 71.8579 23.2447 71.4787 23.4577C71.0994 23.6665 70.5945 23.771 69.9638 23.771ZM70.1683 22.4158C70.7734 22.4158 71.2848 22.2582 71.7024 21.9428C72.12 21.6232 72.4375 21.1822 72.6548 20.6197C72.8722 20.0529 72.9808 19.3988 72.9808 18.6573C72.9808 17.9244 72.8743 17.283 72.6612 16.7333C72.4481 16.1793 72.1328 15.7489 71.7152 15.4421C71.2976 15.131 70.782 14.9755 70.1683 14.9755C69.5291 14.9755 68.9964 15.1396 68.5703 15.4677C68.1484 15.7915 67.831 16.2326 67.6179 16.7908C67.4091 17.3448 67.3047 17.967 67.3047 18.6573C67.3047 19.3562 67.4112 19.9911 67.6243 20.5621C67.8416 21.1289 68.1612 21.5806 68.5831 21.9173C69.0092 22.2496 69.5376 22.4158 70.1683 22.4158ZM80.7835 23.771C79.9653 23.771 79.243 23.5643 78.6166 23.1509C77.9901 22.7333 77.5001 22.1452 77.1464 21.3867C76.7927 20.6239 76.6158 19.7227 76.6158 18.6829C76.6158 17.6516 76.7927 16.7567 77.1464 15.9982C77.5001 15.2397 77.9923 14.6538 78.6229 14.2404C79.2536 13.8271 79.9823 13.6204 80.809 13.6204C81.4482 13.6204 81.9532 13.7269 82.3239 13.94C82.6989 14.1488 82.9845 14.3874 83.1805 14.6559C83.3808 14.9201 83.5363 15.1374 83.6471 15.3079H83.7749V10.4755H85.2835V23.5664H83.8261V22.0579H83.6471C83.5363 22.2369 83.3786 22.4627 83.1741 22.7354C82.9695 23.0039 82.6776 23.2447 82.2984 23.4577C81.9191 23.6665 81.4141 23.771 80.7835 23.771ZM80.988 22.4158C81.5931 22.4158 82.1045 22.2582 82.5221 21.9428C82.9397 21.6232 83.2572 21.1822 83.4745 20.6197C83.6918 20.0529 83.8005 19.3988 83.8005 18.6573C83.8005 17.9244 83.694 17.283 83.4809 16.7333C83.2678 16.1793 82.9525 15.7489 82.5349 15.4421C82.1173 15.131 81.6016 14.9755 80.988 14.9755C80.3488 14.9755 79.8161 15.1396 79.39 15.4677C78.9681 15.7915 78.6506 16.2326 78.4376 16.7908C78.2288 17.3448 78.1244 17.967 78.1244 18.6573C78.1244 19.3562 78.2309 19.9911 78.444 20.5621C78.6613 21.1289 78.9809 21.5806 79.4028 21.9173C79.8289 22.2496 80.3573 22.4158 80.988 22.4158ZM92.0122 23.771C91.0662 23.771 90.2502 23.5621 89.5641 23.1445C88.8823 22.7227 88.356 22.1346 87.9853 21.3803C87.6188 20.6218 87.4355 19.7397 87.4355 18.734C87.4355 17.7283 87.6188 16.842 87.9853 16.0749C88.356 15.3036 88.8716 14.7028 89.5321 14.2724C90.1969 13.8377 90.9725 13.6204 91.8588 13.6204C92.3702 13.6204 92.8752 13.7056 93.3737 13.8761C93.8723 14.0465 94.3262 14.3235 94.7353 14.707C95.1443 15.0863 95.4703 15.5891 95.7132 16.2156C95.9561 16.842 96.0776 17.6133 96.0776 18.5295V19.1687H88.5094V17.8647H94.5435C94.5435 17.3107 94.4327 16.8164 94.2111 16.3817C93.9938 15.9471 93.6827 15.604 93.2779 15.3526C92.8773 15.1012 92.4043 14.9755 91.8588 14.9755C91.258 14.9755 90.7381 15.1246 90.2992 15.4229C89.8645 15.717 89.53 16.1005 89.2956 16.5735C89.0612 17.0465 88.9441 17.5536 88.9441 18.0948V18.9641C88.9441 19.7056 89.0719 20.3342 89.3276 20.8498C89.5875 21.3612 89.9476 21.7511 90.4078 22.0195C90.8681 22.2837 91.4029 22.4158 92.0122 22.4158C92.4085 22.4158 92.7665 22.3604 93.0861 22.2496C93.41 22.1346 93.6891 21.9641 93.9235 21.7383C94.1578 21.5082 94.3389 21.2227 94.4668 20.8817L95.9242 21.2908C95.7708 21.7852 95.5129 22.2198 95.1507 22.5948C94.7885 22.9656 94.3411 23.2553 93.8084 23.4641C93.2757 23.6687 92.677 23.771 92.0122 23.771ZM99.5208 17.6602V23.5664H98.0123V13.7482H99.4697V15.2823H99.5976C99.8277 14.7837 100.177 14.3832 100.646 14.0806C101.115 13.7738 101.72 13.6204 102.461 13.6204C103.126 13.6204 103.708 13.7567 104.206 14.0295C104.705 14.2979 105.093 14.707 105.37 15.2567C105.647 15.8022 105.785 16.4925 105.785 17.3278V23.5664H104.277V17.43C104.277 16.6587 104.076 16.0579 103.676 15.6275C103.275 15.1928 102.725 14.9755 102.027 14.9755C101.545 14.9755 101.115 15.0799 100.735 15.2887C100.36 15.4975 100.064 15.8022 99.8468 16.2028C99.6295 16.6033 99.5208 17.0891 99.5208 17.6602ZM113.089 23.5664V10.4755H117.512C118.539 10.4755 119.378 10.6609 120.03 11.0316C120.687 11.3981 121.172 11.8945 121.488 12.521C121.803 13.1474 121.961 13.8462 121.961 14.6175C121.961 15.3888 121.803 16.0898 121.488 16.7205C121.177 17.3512 120.695 17.854 120.043 18.229C119.391 18.5998 118.556 18.7852 117.538 18.7852H114.367V17.3789H117.486C118.19 17.3789 118.754 17.2575 119.18 17.0146C119.606 16.7717 119.915 16.4435 120.107 16.0302C120.303 15.6126 120.401 15.1417 120.401 14.6175C120.401 14.0934 120.303 13.6246 120.107 13.2113C119.915 12.7979 119.604 12.4741 119.174 12.2397C118.743 12.0011 118.172 11.8817 117.461 11.8817H114.674V23.5664H113.089ZM123.95 23.5664V13.7482H125.407V15.2312H125.51C125.689 14.7454 126.012 14.3512 126.481 14.0486C126.95 13.7461 127.478 13.5948 128.066 13.5948C128.177 13.5948 128.316 13.5969 128.482 13.6012C128.648 13.6055 128.774 13.6119 128.859 13.6204V15.1545C128.808 15.1417 128.691 15.1225 128.507 15.0969C128.328 15.0671 128.139 15.0522 127.939 15.0522C127.461 15.0522 127.035 15.1523 126.66 15.3526C126.289 15.5487 125.995 15.8214 125.778 16.1708C125.565 16.516 125.458 16.9102 125.458 17.3533V23.5664H123.95ZM133.176 23.7965C132.554 23.7965 131.99 23.6793 131.482 23.445C130.975 23.2063 130.573 22.8633 130.274 22.4158C129.976 21.9641 129.827 21.4187 129.827 20.7795C129.827 20.217 129.938 19.761 130.159 19.4116C130.381 19.0579 130.677 18.7809 131.048 18.5806C131.419 18.3803 131.828 18.2312 132.275 18.1332C132.727 18.0309 133.181 17.9499 133.637 17.8903C134.233 17.8136 134.717 17.756 135.088 17.7177C135.463 17.6751 135.735 17.6048 135.906 17.5067C136.08 17.4087 136.168 17.2383 136.168 16.9954V16.9442C136.168 16.3136 135.995 15.8235 135.65 15.4741C135.309 15.1246 134.791 14.9499 134.097 14.9499C133.377 14.9499 132.812 15.1076 132.403 15.4229C131.994 15.7383 131.706 16.0749 131.54 16.4329L130.108 15.9215C130.364 15.3249 130.705 14.8604 131.131 14.5281C131.561 14.1914 132.03 13.957 132.537 13.8249C133.049 13.6886 133.551 13.6204 134.046 13.6204C134.361 13.6204 134.723 13.6587 135.132 13.7354C135.546 13.8079 135.944 13.9592 136.328 14.1893C136.715 14.4194 137.037 14.7667 137.293 15.2312C137.549 15.6957 137.676 16.3178 137.676 17.0977V23.5664H136.168V22.2369H136.091C135.989 22.4499 135.818 22.6779 135.58 22.9208C135.341 23.1637 135.024 23.3704 134.627 23.5408C134.231 23.7113 133.747 23.7965 133.176 23.7965ZM133.406 22.4414C134.003 22.4414 134.506 22.3242 134.915 22.0898C135.328 21.8555 135.639 21.5529 135.848 21.1822C136.061 20.8114 136.168 20.4215 136.168 20.0124V18.6317C136.104 18.7085 135.963 18.7788 135.746 18.8427C135.533 18.9023 135.286 18.9556 135.004 19.0025C134.728 19.0451 134.457 19.0835 134.193 19.1175C133.933 19.1474 133.722 19.1729 133.56 19.1942C133.168 19.2454 132.801 19.3285 132.46 19.4435C132.124 19.5543 131.851 19.7227 131.642 19.9485C131.438 20.1701 131.335 20.4727 131.335 20.8562C131.335 21.3803 131.529 21.7766 131.917 22.0451C132.309 22.3093 132.806 22.4414 133.406 22.4414ZM144.058 23.771C143.138 23.771 142.345 23.5536 141.681 23.119C141.016 22.6843 140.504 22.0856 140.146 21.3228C139.788 20.56 139.61 19.6886 139.61 18.7085C139.61 17.7113 139.793 16.8313 140.159 16.0685C140.53 15.3015 141.046 14.7028 141.706 14.2724C142.371 13.8377 143.146 13.6204 144.033 13.6204C144.723 13.6204 145.345 13.7482 145.899 14.0039C146.453 14.2596 146.907 14.6175 147.261 15.0778C147.614 15.538 147.834 16.0749 147.919 16.6886H146.411C146.296 16.2411 146.04 15.8448 145.644 15.4996C145.252 15.1502 144.723 14.9755 144.058 14.9755C143.47 14.9755 142.955 15.1289 142.512 15.4357C142.073 15.7383 141.73 16.1665 141.482 16.7205C141.239 17.2702 141.118 17.9158 141.118 18.6573C141.118 19.4158 141.237 20.0763 141.476 20.6388C141.719 21.2013 142.06 21.6381 142.499 21.9492C142.942 22.2603 143.462 22.4158 144.058 22.4158C144.45 22.4158 144.806 22.3477 145.126 22.2113C145.445 22.0749 145.716 21.8789 145.938 21.6232C146.159 21.3675 146.317 21.0607 146.411 20.7028H147.919C147.834 21.2823 147.623 21.8043 147.286 22.2688C146.954 22.729 146.513 23.0955 145.963 23.3683C145.418 23.6367 144.783 23.771 144.058 23.771ZM154.034 13.7482V15.0266H148.946V13.7482H154.034ZM150.429 11.396H151.938V20.7539C151.938 21.18 152 21.4996 152.123 21.7127C152.251 21.9215 152.413 22.0621 152.609 22.1346C152.809 22.2028 153.02 22.2369 153.242 22.2369C153.408 22.2369 153.544 22.2283 153.651 22.2113C153.757 22.19 153.843 22.1729 153.906 22.1602L154.213 23.5153C154.111 23.5536 153.968 23.592 153.785 23.6303C153.602 23.6729 153.37 23.6942 153.088 23.6942C152.662 23.6942 152.245 23.6026 151.835 23.4194C151.431 23.2362 151.094 22.957 150.826 22.582C150.561 22.207 150.429 21.734 150.429 21.163V11.396ZM155.943 23.5664V13.7482H157.452V23.5664H155.943ZM156.711 12.1119C156.417 12.1119 156.163 12.0117 155.95 11.8114C155.741 11.6112 155.637 11.3704 155.637 11.0891C155.637 10.8079 155.741 10.5671 155.95 10.3668C156.163 10.1665 156.417 10.0664 156.711 10.0664C157.005 10.0664 157.256 10.1665 157.465 10.3668C157.678 10.5671 157.784 10.8079 157.784 11.0891C157.784 11.3704 157.678 11.6112 157.465 11.8114C157.256 12.0117 157.005 12.1119 156.711 12.1119ZM163.844 23.771C162.923 23.771 162.131 23.5536 161.466 23.119C160.801 22.6843 160.29 22.0856 159.932 21.3228C159.574 20.56 159.395 19.6886 159.395 18.7085C159.395 17.7113 159.578 16.8313 159.944 16.0685C160.315 15.3015 160.831 14.7028 161.491 14.2724C162.156 13.8377 162.932 13.6204 163.818 13.6204C164.508 13.6204 165.131 13.7482 165.685 14.0039C166.239 14.2596 166.692 14.6175 167.046 15.0778C167.4 15.538 167.619 16.0749 167.704 16.6886H166.196C166.081 16.2411 165.825 15.8448 165.429 15.4996C165.037 15.1502 164.508 14.9755 163.844 14.9755C163.256 14.9755 162.74 15.1289 162.297 15.4357C161.858 15.7383 161.515 16.1665 161.268 16.7205C161.025 17.2702 160.903 17.9158 160.903 18.6573C160.903 19.4158 161.023 20.0763 161.261 20.6388C161.504 21.2013 161.845 21.6381 162.284 21.9492C162.727 22.2603 163.247 22.4158 163.844 22.4158C164.236 22.4158 164.591 22.3477 164.911 22.2113C165.231 22.0749 165.501 21.8789 165.723 21.6232C165.944 21.3675 166.102 21.0607 166.196 20.7028H167.704C167.619 21.2823 167.408 21.8043 167.072 22.2688C166.739 22.729 166.298 23.0955 165.748 23.3683C165.203 23.6367 164.568 23.771 163.844 23.771ZM173.666 23.771C172.72 23.771 171.904 23.5621 171.218 23.1445C170.536 22.7227 170.01 22.1346 169.639 21.3803C169.273 20.6218 169.089 19.7397 169.089 18.734C169.089 17.7283 169.273 16.842 169.639 16.0749C170.01 15.3036 170.526 14.7028 171.186 14.2724C171.851 13.8377 172.626 13.6204 173.513 13.6204C174.024 13.6204 174.529 13.7056 175.028 13.8761C175.526 14.0465 175.98 14.3235 176.389 14.707C176.798 15.0863 177.124 15.5891 177.367 16.2156C177.61 16.842 177.731 17.6133 177.731 18.5295V19.1687H170.163V17.8647H176.197C176.197 17.3107 176.087 16.8164 175.865 16.3817C175.648 15.9471 175.337 15.604 174.932 15.3526C174.531 15.1012 174.058 14.9755 173.513 14.9755C172.912 14.9755 172.392 15.1246 171.953 15.4229C171.518 15.717 171.184 16.1005 170.95 16.5735C170.715 17.0465 170.598 17.5536 170.598 18.0948V18.9641C170.598 19.7056 170.726 20.3342 170.981 20.8498C171.241 21.3612 171.602 21.7511 172.062 22.0195C172.522 22.2837 173.057 22.4158 173.666 22.4158C174.062 22.4158 174.42 22.3604 174.74 22.2496C175.064 22.1346 175.343 21.9641 175.577 21.7383C175.812 21.5082 175.993 21.2227 176.121 20.8817L177.578 21.2908C177.425 21.7852 177.167 22.2198 176.805 22.5948C176.442 22.9656 175.995 23.2553 175.462 23.4641C174.93 23.6687 174.331 23.771 173.666 23.771Z" fill="#D1F8C9"/>
<defs>
<clipPath id="clip0_167_2050">
<rect y="0.566406" width="32" height="32" rx="2" fill="white"/>
</clipPath>
</defs>
</svg>
