<svg width="41" height="41" viewBox="0 0 41 41" fill="none" xmlns="http://www.w3.org/2000/svg">
<path fill-rule="evenodd" clip-rule="evenodd" d="M21.5811 1.64844C21.5811 1.09615 21.1334 0.648438 20.5811 0.648438C20.0288 0.648438 19.5811 1.09615 19.5811 1.64844V19.6475H1.58203C1.02975 19.6475 0.582031 20.0952 0.582031 20.6475C0.582031 21.1998 1.02975 21.6475 1.58203 21.6475H19.5811V39.648C19.5811 40.2003 20.0288 40.648 20.5811 40.648C21.1334 40.648 21.5811 40.2003 21.5811 39.648V21.6475H39.5816C40.1339 21.6475 40.5816 21.1998 40.5816 20.6475C40.5816 20.0952 40.1339 19.6475 39.5816 19.6475H21.5811V1.64844Z" fill="white"/>
</svg>
